<svg xmlns="http://www.w3.org/2000/svg" viewBox="0 0 1920 340"><defs><style>.cls-1{fill:url(#radial-gradient)}.cls-2{fill:url(#radial-gradient-2)}.cls-3{clip-path:url(#clip-path)}.cls-4{fill:#2f2f2f;opacity:.3}.cls-5{fill:#363636;opacity:.679}.cls-6{fill:none}.cls-7{filter:url(#联合_46)}.cls-8{filter:url(#联合_45)}</style><radialGradient id="radial-gradient" cx=".5" cy=".5" r="3.346" gradientTransform="matrix(.177 0 0 1.008 .411 -.004)"><stop offset="0" stop-color="#313131"/><stop offset="1" stop-color="#1f1f1f"/></radialGradient><radialGradient id="radial-gradient-2" cx=".5" cy=".5" r="3.346" gradientTransform="matrix(.177 0 0 1.008 .411 -.004)"><stop offset="0" stop-color="#3c3c3c"/><stop offset="1" stop-color="#212121"/></radialGradient><clipPath id="clip-path"><path id="background" class="cls-1" d="M0 0h1920v340H0z"/></clipPath><filter id="联合_45" x="-1536.783" y="-1804.621" width="2884.783" height="2940.58" filterUnits="userSpaceOnUse"><feOffset dy="16"/><feGaussianBlur result="blur"/><feFlood flood-color="#1d1d1d" flood-opacity=".91"/><feComposite operator="in" in2="blur"/><feComposite in="SourceGraphic"/></filter><filter id="联合_46" x="1048" y="-385.717" width="2571.953" height="2619.434" filterUnits="userSpaceOnUse"><feOffset dy="-12"/><feGaussianBlur result="blur-2"/><feFlood flood-color="#404040" flood-opacity=".91"/><feComposite operator="in" in2="blur-2"/><feComposite in="SourceGraphic"/></filter></defs><g id="background-banner" transform="translate(1)"><path id="background-1" class="cls-2" d="M0 0h1920v340H0z" transform="translate(-1)"/><g id="background-1-1" class="cls-3"><g class="cls-8" transform="translate(-1)"><path id="联合_45-2" data-name="联合 45" class="cls-4" d="M876.685 6887.327C704.9 6813.7 550.7 6708.3 418.216 6573.993A1457.806 1457.806 0 0 1 109.145 6109.2C33.866 5929-4.271 5737.365-4.271 5540.02s38.136-388.98 113.416-569.182a1457.811 1457.811 0 0 1 309.071-464.792C550.7 4371.735 704.9 4266.338 876.683 4192.711c177.916-76.318 366.775-114.981 561.437-114.981s383.687 38.664 561.437 114.981c171.779 73.626 325.985 179.023 458.468 313.334a1457.857 1457.857 0 0 1 309.075 464.792c75.277 180.37 113.413 371.835 113.413 569.182S2842.375 5929 2767.1 6109.2a1457.852 1457.852 0 0 1-309.073 464.793c-132.483 134.309-286.689 239.707-458.468 313.334-177.75 76.317-366.774 114.982-561.437 114.982s-383.689-38.664-561.437-114.982zm12.933-2663.687c-167.8 71.944-318.523 174.989-448.021 306.106a1424.829 1424.829 0 0 0-301.943 454.2C66.2 5160.115 28.891 5347.21 28.891 5540.02s37.309 379.9 110.763 556.071a1427.6 1427.6 0 0 0 301.943 454.2c129.5 131.283 280.22 234.161 448.021 306.106 173.769 74.469 358.317 112.291 548.5 112.291s374.733-37.822 548.5-112.291c167.8-71.945 318.524-174.991 448.022-306.106a1424.89 1424.89 0 0 0 301.942-454.2c73.455-176.168 110.762-363.264 110.762-556.071s-37.307-379.9-110.762-556.071a1424.881 1424.881 0 0 0-301.942-454.2c-129.5-131.285-280.221-234.162-448.022-306.106-173.6-74.467-358.153-112.292-548.5-112.292-190.184-.002-374.731 37.822-548.5 112.29zm6.8 2616.452c-165.811-71.105-314.544-172.808-442.383-302.407A1407.181 1407.181 0 0 1 155.738 6089.2C83.112 5915.216 46.3 5730.473 46.3 5540.02s36.81-375.2 109.437-549.179a1407.187 1407.187 0 0 1 298.294-448.485c127.839-129.6 276.572-231.3 442.383-302.409C1068.031 4166.319 1250.256 4129 1438.12 4129s370.091 37.319 541.707 110.946c165.811 71.1 314.543 172.806 442.384 302.409a1407.21 1407.21 0 0 1 298.289 448.486c72.624 173.983 109.435 358.724 109.435 549.179s-36.811 375.2-109.435 549.177a1407.237 1407.237 0 0 1-298.294 448.489c-127.842 129.6-276.573 231.3-442.384 302.407-171.615 73.629-353.843 110.945-541.707 110.945s-370.084-37.316-541.699-110.945zm12.269-2570.564c-161.83 69.429-307.414 168.942-432.27 295.52a1376.594 1376.594 0 0 0-291.494 438.233c-70.97 170.119-106.95 350.655-106.95 536.739s35.981 366.793 106.948 536.738a1374.781 1374.781 0 0 0 291.494 438.232c124.856 126.579 270.439 226.095 432.27 295.517 167.636 71.949 345.716 108.424 529.435 108.424s361.8-36.475 529.435-108.424c162-69.422 307.414-168.937 432.27-295.517a1376.6 1376.6 0 0 0 291.5-438.232c70.968-169.945 106.948-350.485 106.948-536.738s-35.98-366.792-106.948-536.739a1374.738 1374.738 0 0 0-291.5-438.233c-124.856-126.577-270.437-226.09-432.27-295.52-167.635-71.941-345.717-108.419-529.435-108.419-183.552 0-361.799 36.478-529.435 108.419zm7.463 2523.161c-159.676-68.418-303.1-166.586-426.3-291.314a1353.419 1353.419 0 0 1-287.35-432.181C132.524 5901.6 97.04 5723.581 97.04 5540.02s35.484-361.58 105.456-529.174a1355.231 1355.231 0 0 1 287.351-432.181c123.2-124.9 266.625-222.9 426.3-291.314 165.312-70.937 340.906-106.91 521.972-106.91s356.66 35.973 521.974 106.91c159.677 68.417 303.1 166.583 426.3 291.314a1353.351 1353.351 0 0 1 287.351 432.181c69.972 167.594 105.456 345.61 105.456 529.174s-35.484 361.58-105.456 529.175a1357.969 1357.969 0 0 1-287.351 432.181c-123.031 124.9-266.623 222.9-426.3 291.314-165.314 70.938-340.908 106.909-521.974 106.909s-356.659-35.972-521.971-106.91zm11.77-2477.266c-156.028 66.9-296.3 162.719-416.684 284.757-120.378 122.208-215.057 264.25-281.05 422.6-68.313 163.9-102.968 337.878-102.968 517.24s34.654 353.511 102.968 517.238a1325.875 1325.875 0 0 0 280.884 422.43c120.38 122.041 260.656 217.856 416.685 284.759 161.666 69.259 333.279 104.39 510.2 104.39s348.7-35.131 510.2-104.39c156.028-66.9 296.305-162.718 416.685-284.759a1325.869 1325.869 0 0 0 280.884-422.431c68.313-163.895 102.968-337.879 102.968-517.238s-34.655-353.511-102.968-517.24a1325.928 1325.928 0 0 0-280.884-422.432c-120.38-122.04-260.657-217.854-416.685-284.758-161.334-69.426-332.948-104.56-510.035-104.56-176.92.001-348.7 35.135-510.2 104.394zm7.958 2430.03c-153.706-65.895-291.661-160.2-410.217-280.388a1304.56 1304.56 0 0 1-276.572-415.877c-67.319-161.374-101.477-332.666-101.477-509.169s34.158-347.963 101.477-509.171a1304.556 1304.556 0 0 1 276.572-415.875c118.557-120.191 256.511-214.5 410.217-280.389 159.179-68.247 328.14-102.877 502.242-102.877s343.23 34.63 502.242 102.877c153.708 65.894 291.663 160.2 410.218 280.389a1304.57 1304.57 0 0 1 276.573 415.875c67.321 161.374 101.476 332.666 101.476 509.171s-34.155 347.963-101.476 509.169a1304.573 1304.573 0 0 1-276.573 415.877c-118.555 120.19-256.51 214.493-410.218 280.388-159.011 68.247-327.974 102.878-502.242 102.878s-343.229-34.631-502.242-102.878zm11.109-2384.14c-150.224 64.381-285.2 156.667-401.1 274.168a1278.424 1278.424 0 0 0-270.438 406.63c-65.823 157.676-99.149 325.272-99.149 497.909s33.328 340.232 99.155 497.906a1275.7 1275.7 0 0 0 270.438 406.633c115.9 117.5 250.873 209.785 401.1 274.166 155.531 66.736 320.845 100.524 491.132 100.524s335.6-33.788 491.132-100.524c150.226-64.381 285.2-156.666 401.1-274.166a1275.664 1275.664 0 0 0 270.438-406.633c65.829-157.674 99.158-325.269 99.158-497.906s-33.328-340.232-99.158-497.908a1275.662 1275.662 0 0 0-270.437-406.63c-115.9-117.5-250.872-209.787-401.1-274.168a1241.558 1241.558 0 0 0-491.132-100.524c-170.293-.001-335.607 33.788-491.138 100.523zm8.623 2336.737c-147.573-63.374-280.221-153.979-394.133-269.294a1250.033 1250.033 0 0 1-265.629-399.4c-64.667-154.984-97.5-319.554-97.5-489.164s32.831-334.351 97.5-489.168a1258.14 1258.14 0 0 1 265.63-399.574c113.912-115.485 246.4-206.089 394.133-269.293 152.876-65.559 315.206-98.842 482.509-98.842s329.8 33.283 482.512 98.842c147.572 63.373 280.22 153.977 394.133 269.293a1250.771 1250.771 0 0 1 265.629 399.571c64.667 154.986 97.5 319.555 97.5 489.168s-32.832 334.348-97.5 489.164a1258.126 1258.126 0 0 1-265.629 399.571c-113.913 115.483-246.4 206.086-394.133 269.293-152.713 65.39-315.208 98.674-482.512 98.674s-329.797-33.284-482.509-98.84zm10.446-2290.68c-144.422 61.862-274.086 150.615-385.512 263.411a1227.219 1227.219 0 0 0-259.659 390.83c-63.174 151.626-95.342 312.494-95.342 478.577s32 326.948 95.342 478.574a1227.734 1227.734 0 0 0 259.825 390.829C692.135 6522.555 821.8 6611.141 966.221 6673c149.563 64.045 308.244 96.655 472.065 96.655s322.5-32.441 472.065-96.655c144.421-61.862 274.086-150.617 385.511-263.41a1225.012 1225.012 0 0 0 259.825-390.829c63.173-151.626 95.343-312.5 95.343-478.574s-32-326.951-95.343-478.577a1227.663 1227.663 0 0 0-259.825-390.83c-111.425-112.964-241.09-201.552-385.511-263.411-149.729-64.213-308.576-96.656-472.231-96.656s-322.502 32.445-472.063 96.658zm9.284 2243.443c-141.6-60.686-268.779-147.59-378.049-258.367a1202 1202 0 0 1-254.85-383.266c-62.014-148.6-93.519-306.442-93.519-469.162s31.5-320.562 93.519-469.162a1201.959 1201.959 0 0 1 254.85-383.265c109.271-110.779 236.446-197.685 378.049-258.37 146.577-62.867 302.275-94.807 462.779-94.807s316.2 31.94 462.779 94.807c141.6 60.685 268.781 147.591 378.049 258.37a1201.957 1201.957 0 0 1 254.853 383.266c62.014 148.6 93.516 306.439 93.516 469.162s-31.5 320.563-93.516 469.162a1201.994 1201.994 0 0 1-254.853 383.266c-109.267 110.778-236.447 197.682-378.047 258.367-146.578 62.868-302.273 94.808-462.779 94.808s-316.203-31.939-462.78-94.808zm9.949-2197.72c-138.618 59.337-262.976 144.4-369.759 252.819a1181.376 1181.376 0 0 0-249.381 374.858c-60.686 145.406-91.361 299.89-91.361 459.078s30.842 313.673 91.361 459.078a1172.158 1172.158 0 0 0 249.381 374.858C722.48 6482.042 846.839 6567.1 985.29 6626.6c143.426 61.526 295.807 92.623 452.829 92.623a1144.986 1144.986 0 0 0 452.832-92.623c138.618-59.337 262.975-144.393 369.759-252.817a1179.462 1179.462 0 0 0 249.378-374.858c60.688-145.405 91.363-299.89 91.363-459.078s-30.842-313.672-91.363-459.078a1172.155 1172.155 0 0 0-249.378-374.858c-106.784-108.251-231.31-193.311-369.759-252.816a1153.247 1153.247 0 0 0-905.661 0zm9.617 2150.314c-135.632-58.162-257.339-141.37-361.8-247.273A1150.177 1150.177 0 0 1 389.2 5989.347c-59.36-142.38-89.538-293.5-89.538-449.327s30.179-306.948 89.538-449.328A1151.087 1151.087 0 0 1 633.109 4723.9c104.626-106.068 226.331-189.278 361.8-247.27a1127.4 1127.4 0 0 1 886.426 0c135.635 58.161 257.339 141.37 361.8 247.27a1149.285 1149.285 0 0 1 243.908 366.793c59.362 142.38 89.538 293.5 89.538 449.328s-30.177 306.947-89.538 449.327a1151.046 1151.046 0 0 1-243.908 366.789c-104.462 105.9-226.333 189.279-361.8 247.273-140.441 60.348-289.5 90.772-443.213 90.772a1118.8 1118.8 0 0 1-443.215-90.773zm9.45-2104.254c-132.646 56.816-251.865 138.347-354.17 242.063a1125.956 1125.956 0 0 0-238.768 359.057c-58.033 139.186-87.549 287.28-87.549 439.746s29.515 300.392 87.549 439.746a1126 1126 0 0 0 238.768 359.058c102.3 103.718 221.524 185.244 354.171 242.061 137.293 58.836 283.372 88.756 433.762 88.756a1096.1 1096.1 0 0 0 433.762-88.756c132.649-56.816 251.868-138.343 354.174-242.061a1126.013 1126.013 0 0 0 238.766-359.058c58.036-139.187 87.549-287.283 87.549-439.746s-29.513-300.392-87.549-439.746a1125.974 1125.974 0 0 0-238.766-359.057c-102.306-103.718-221.524-185.247-354.174-242.061a1104.284 1104.284 0 0 0-867.525 0zm10.282 2057.018c-129.5-55.472-245.9-134.979-345.717-236.344a1104.236 1104.236 0 0 1-233.13-350.485c-56.707-135.993-85.559-280.391-85.559-429.324s28.686-293.332 85.559-429.325a1096.807 1096.807 0 0 1 233.13-350.484c99.984-101.2 216.217-180.708 345.717-236.347a1068.83 1068.83 0 0 1 423.48-86.739c146.91 0 289.34 29.082 423.482 86.739 129.5 55.472 245.9 134.984 345.717 236.347a1104.181 1104.181 0 0 1 233.131 350.484c56.707 135.993 85.557 280.39 85.557 429.325s-28.684 293.331-85.557 429.324a1096.894 1096.894 0 0 1-233.131 350.485c-99.984 101.193-216.219 180.7-345.717 236.344a1068.839 1068.839 0 0 1-423.482 86.741c-146.906.002-289.339-29.082-423.479-86.739zm8.954-2011.129c-126.845 54.463-240.758 132.293-338.586 231.474a1078.452 1078.452 0 0 0-228.322 343.256c-55.547 133.131-83.734 274.5-83.734 420.245s28.187 287.111 83.734 420.244a1078.454 1078.454 0 0 0 228.322 343.257c97.829 99.179 211.741 177.009 338.586 231.473 131.321 56.313 270.768 84.891 414.526 84.891s283.206-28.577 414.529-84.891c126.845-54.464 240.758-132.294 338.587-231.473a1078.5 1078.5 0 0 0 228.322-343.257c55.547-133.133 83.734-274.5 83.734-420.244s-28.187-287.114-83.734-420.245a1078.5 1078.5 0 0 0-228.322-343.256c-97.829-99.181-211.741-177.011-338.587-231.474-131.157-56.312-270.77-84.889-414.529-84.889s-283.204 28.578-414.525 84.891zm10.777 1963.729c-123.529-52.954-234.457-128.765-329.633-225.253a1048.493 1048.493 0 0 1-222.185-334.182c-54.056-129.6-81.58-267.276-81.58-409.318s27.36-279.716 81.58-409.319a1048.453 1048.453 0 0 1 222.185-334.18c95.176-96.486 206.1-172.3 329.633-225.25a1018.851 1018.851 0 0 1 403.75-82.706c140.111 0 275.911 27.738 403.75 82.706 123.529 52.949 234.457 128.764 329.633 225.25A1048.468 1048.468 0 0 1 2393.69 5130.7c54.055 129.6 81.578 267.275 81.578 409.319s-27.357 279.717-81.578 409.318a1048.509 1048.509 0 0 1-222.19 334.183c-95.176 96.488-206.1 172.3-329.633 225.253-127.839 54.968-263.639 82.7-403.75 82.7-139.941.003-275.906-27.733-403.747-82.701zm8.291-1917.836a1012.272 1012.272 0 0 0-323 220.713A1029.645 1029.645 0 0 0 501.952 5139.1C449.058 5266.021 422.2 5401 422.2 5540.02s26.861 274 79.755 400.916a1027.778 1027.778 0 0 0 217.71 327.454c93.351 94.64 201.958 168.938 323 220.713 125.188 53.625 258.334 80.855 395.459 80.855s270.273-27.23 395.459-80.855a1012.27 1012.27 0 0 0 323-220.713 1025.094 1025.094 0 0 0 217.71-327.454c52.895-126.915 79.755-261.9 79.755-400.916s-26.86-274-79.755-400.916a1027.839 1027.839 0 0 0-217.71-327.454c-93.353-94.64-201.958-168.938-323-220.713-125.186-53.625-258.332-80.855-395.459-80.855s-270.275 27.23-395.464 80.854zm11.44 1870.43a984.564 984.564 0 0 1-313.549-214.323 999.741 999.741 0 0 1-211.41-317.877c-51.4-123.214-77.6-254.332-77.6-389.314s26.033-265.933 77.6-389.314a999.687 999.687 0 0 1 211.41-317.873 984.516 984.516 0 0 1 313.549-214.327 969.515 969.515 0 0 1 384.017-78.668c133.146 0 262.313 26.389 384.02 78.668a984.541 984.541 0 0 1 313.549 214.326 1004.347 1004.347 0 0 1 289.014 707.188c0 134.982-26.031 265.933-77.6 389.314a999.73 999.73 0 0 1-211.408 317.877 984.611 984.611 0 0 1-313.549 214.323c-121.706 52.282-250.874 78.672-384.02 78.672s-262.316-26.39-384.023-78.672zm7.627-1824.539a962.1 962.1 0 0 0-307.247 210.123 977.07 977.07 0 0 0-207.1 311.655c-50.406 120.864-75.94 249.122-75.94 381.585s25.535 260.718 75.94 381.58a976.854 976.854 0 0 0 207.263 311.488 962.118 962.118 0 0 0 307.247 210.123c119.22 51.1 245.732 76.988 376.392 76.988s257.172-25.888 376.39-76.988a962.113 962.113 0 0 0 307.25-210.123 979.619 979.619 0 0 0 207.268-311.487c50.406-120.862 75.942-249.119 75.942-381.58s-25.532-260.722-75.942-381.59a976.806 976.806 0 0 0-207.263-311.485c-88.875-89.936-192.176-160.7-307.25-210.123a951.6 951.6 0 0 0-376.557-77.156c-130.494.004-257.172 25.888-376.39 76.99zm12.1 1777.3A931.6 931.6 0 0 1 776.368 6210.9a953.313 953.313 0 0 1-274.086-670.88c0-128.091 24.705-252.316 73.62-369.312a947.727 947.727 0 0 1 200.466-301.568c86.056-87.072 186.04-155.492 297.464-203.23a920.154 920.154 0 0 1 364.287-74.637c126.348 0 248.884 25.046 364.287 74.637a931.588 931.588 0 0 1 297.466 203.23 953.315 953.315 0 0 1 274.086 670.881c0 128.09-24.7 252.314-73.62 369.313a945.855 945.855 0 0 1-200.466 301.566 931.582 931.582 0 0 1-297.466 203.23c-115.4 49.591-237.939 74.637-364.287 74.637s-248.881-25.045-364.287-74.636zm7.131-1731.244A914.885 914.885 0 0 0 789.3 4882.249a928.912 928.912 0 0 0-196.65 295.687c-47.92 114.643-72.128 236.512-72.128 362.083S544.73 5787.46 592.65 5902.1a928.893 928.893 0 0 0 196.65 295.69 914.853 914.853 0 0 0 291.662 199.364c113.083 48.581 233.3 73.12 357.157 73.12s244.074-24.539 357.157-73.12a914.867 914.867 0 0 0 291.664-199.364 928.913 928.913 0 0 0 196.653-295.69c47.919-114.644 72.127-236.516 72.127-362.084s-24.208-247.44-72.127-362.083a928.932 928.932 0 0 0-196.653-295.687 914.9 914.9 0 0 0-291.663-199.362c-113.083-48.583-233.295-73.124-357.157-73.124s-244.074 24.54-357.157 73.127zm12.6 1683.84a881.75 881.75 0 0 1-281.383-192.3 901.487 901.487 0 0 1-259.328-634.572c0-121.2 23.381-238.7 69.641-349.308a895.3 895.3 0 0 1 189.687-285.265 881.771 881.771 0 0 1 281.383-192.3 870.248 870.248 0 0 1 344.555-70.6c119.55 0 235.452 23.7 344.557 70.6a881.765 881.765 0 0 1 281.381 192.3 901.475 901.475 0 0 1 259.328 634.573c0 121.2-23.379 238.7-69.639 349.31a895.267 895.267 0 0 1-189.689 285.263 881.744 881.744 0 0 1-281.381 192.3c-109.1 46.9-225.006 70.6-344.557 70.6s-235.443-23.695-344.548-70.595zm6.465-1637.952a862.708 862.708 0 0 0-276.068 188.78 883.95 883.95 0 0 0-254.52 622.64c0 118.844 22.882 234.16 68.315 342.75a875.9 875.9 0 0 0 186.2 279.883c79.755 80.855 172.611 144.4 276.075 188.775a853.722 853.722 0 0 0 338.089 69.258c117.228 0 230.975-23.2 338.09-69.258a862.623 862.623 0 0 0 276.076-188.775 883.921 883.921 0 0 0 254.52-622.633c0-118.847-22.882-234.163-68.313-342.755a875.9 875.9 0 0 0-186.207-279.885c-79.755-80.854-172.609-144.4-276.076-188.774a853.779 853.779 0 0 0-338.09-69.256c-117.222 0-230.969 23.197-338.084 69.255zm13.277 1590.723A828.347 828.347 0 0 1 848 6138.114a852.81 852.81 0 0 1 .166-1196.359c76.77-77.66 165.811-138.679 265.3-181.377a826.345 826.345 0 0 1 914.946 181.377 849.642 849.642 0 0 1 244.568 598.265c0 114.139-22.052 224.917-65.661 329.3a840.963 840.963 0 0 1-178.911 268.958c-76.771 77.661-165.812 138.682-265.3 181.379a827.177 827.177 0 0 1-649.815-.167zm5.97-1544.826a817.225 817.225 0 0 0-260.49 178.014 827.99 827.99 0 0 0-175.594 264.083c-42.779 102.374-64.334 211.13-64.334 323.255a833.708 833.708 0 0 0 239.928 587.337 815.441 815.441 0 0 0 260.49 178.015c100.978 43.368 208.259 65.222 318.854 65.222a806.139 806.139 0 0 0 318.856-65.222 817.242 817.242 0 0 0 260.488-178.015 827.908 827.908 0 0 0 175.594-264.084c42.779-102.373 64.334-211.131 64.334-323.253a833.7 833.7 0 0 0-239.928-587.338 815.386 815.386 0 0 0-260.488-178.014 812.012 812.012 0 0 0-637.71 0zm13.762 1497.588c-93.351-40.006-177.087-97.329-249.214-170.284a792.625 792.625 0 0 1-167.967-252.652c-40.955-98-61.515-202.055-61.515-309.3a797.523 797.523 0 0 1 229.482-561.954 780.631 780.631 0 0 1 249.214-170.283c96.668-41.521 199.305-62.366 305.092-62.366a771.32 771.32 0 0 1 305.092 62.366c93.353 40.006 177.087 97.326 249.215 170.283a792.609 792.609 0 0 1 167.967 252.652c40.956 98 61.518 202.052 61.518 309.3a797.541 797.541 0 0 1-229.484 561.952 780.621 780.621 0 0 1-249.215 170.284 777.485 777.485 0 0 1-610.184 0zm5.305-1451.7A767.438 767.438 0 0 0 893.6 4987.817a787.155 787.155 0 0 0 0 1104.068 766.578 766.578 0 0 0 244.737 167.261 763.077 763.077 0 0 0 599.573 0 767.461 767.461 0 0 0 244.737-167.261 787.146 787.146 0 0 0 0-1104.068 766.544 766.544 0 0 0-244.737-167.259 763.043 763.043 0 0 0-599.573 0zm14.427 1404.462a730.165 730.165 0 0 1-232.966-159.356 743.176 743.176 0 0 1-157.188-236.179c-38.3-91.614-57.536-188.943-57.536-289.3a748.9 748.9 0 0 1 57.536-289.3 741.322 741.322 0 0 1 157.188-236.177 731.935 731.935 0 0 1 232.966-159.355c90.366-38.833 186.371-58.333 285.359-58.333a721.366 721.366 0 0 1 285.362 58.333 730.12 730.12 0 0 1 232.964 159.355 743.191 743.191 0 0 1 157.19 236.177c38.3 91.616 57.536 188.944 57.536 289.3a748.881 748.881 0 0 1-57.536 289.3 741.338 741.338 0 0 1-157.19 236.179 732 732 0 0 1-232.964 159.356 727.192 727.192 0 0 1-570.721 0zm4.642-1358.405a717.979 717.979 0 0 0-229.152 156.671 736.879 736.879 0 0 0 0 1033.8 717.944 717.944 0 0 0 229.146 156.674 714.1 714.1 0 0 0 561.437 0 717.914 717.914 0 0 0 229.15-156.667 728.965 728.965 0 0 0 154.537-232.312c37.638-90.1 56.707-185.749 56.707-284.589a733.815 733.815 0 0 0-211.244-516.9 717.949 717.949 0 0 0-229.15-156.671 714.125 714.125 0 0 0-561.437 0zm15.088 1311a678.9 678.9 0 0 1-216.88-148.264 689.342 689.342 0 0 1-146.247-219.871c-35.648-85.229-53.556-176-53.556-269.293a697.647 697.647 0 0 1 53.556-269.295 689.331 689.331 0 0 1 146.247-219.874 678.877 678.877 0 0 1 216.88-148.263c84.067-36.143 173.6-54.3 265.629-54.3a672 672 0 0 1 265.629 54.3 678.913 678.913 0 0 1 216.883 148.263 689.325 689.325 0 0 1 146.245 219.874c35.649 85.224 53.557 176 53.557 269.295a697.645 697.645 0 0 1-53.557 269.293 689.336 689.336 0 0 1-146.245 219.871 678.938 678.938 0 0 1-216.883 148.264 676.932 676.932 0 0 1-531.258 0zm4.145-1265.275a669.848 669.848 0 0 0-213.564 145.9 686.973 686.973 0 0 0 0 963.375 668.054 668.054 0 0 0 213.564 145.911 666.294 666.294 0 0 0 522.968 0 669.9 669.9 0 0 0 213.567-145.911 678.277 678.277 0 0 0 143.923-216.512 686.82 686.82 0 0 0-143.923-746.691 668.08 668.08 0 0 0-213.574-145.902 665.288 665.288 0 0 0-522.968-.165zm15.587 1218.039a629.026 629.026 0 0 1-200.8-137.338 638.661 638.661 0 0 1-135.468-203.566c-33-79-49.576-162.888-49.576-249.287a646.425 646.425 0 0 1 49.575-249.285 638.712 638.712 0 0 1 135.468-203.567 629.061 629.061 0 0 1 200.8-137.336 626.644 626.644 0 0 1 491.8 0 629.078 629.078 0 0 1 200.8 137.336 638.683 638.683 0 0 1 135.458 203.567c33 79.007 49.578 162.888 49.578 249.292a646.382 646.382 0 0 1-49.578 249.287 638.633 638.633 0 0 1-135.469 203.566 629.043 629.043 0 0 1-200.8 137.338 626.65 626.65 0 0 1-491.8 0zm3.482-1171.981a620.338 620.338 0 0 0-197.979 135.317 628.026 628.026 0 0 0-133.479 200.71 636.543 636.543 0 0 0 133.479 692.229 618.563 618.563 0 0 0 197.979 135.321 617.32 617.32 0 0 0 484.831 0 620.368 620.368 0 0 0 197.978-135.321 628.019 628.019 0 0 0 133.479-200.71 636.543 636.543 0 0 0-133.479-692.229 618.52 618.52 0 0 0-197.981-135.312 617.3 617.3 0 0 0-484.831 0zm16.248 1124.577a580.51 580.51 0 0 1-184.714-126.241 586.73 586.73 0 0 1-124.523-187.26c-30.343-72.621-45.6-149.777-45.6-229.286a591 591 0 0 1 170.12-416.55 577.84 577.84 0 0 1 184.715-126.235 576.35 576.35 0 0 1 452.332 0A580.533 580.533 0 0 1 1849 5123.64a586.65 586.65 0 0 1 124.523 187.26c30.345 72.617 45.6 149.775 45.6 229.288A591 591 0 0 1 1849 5956.735a575.9 575.9 0 0 1-637.047 126.241zm-179.407-954.125C924.272 5238.787 864.58 5384.7 864.58 5540.02s59.692 301.232 167.967 411.166c108.275 109.771 252.364 170.285 405.573 170.285s297.134-60.515 405.575-170.285c108.275-109.769 167.967-255.844 167.967-411.166s-59.692-301.232-167.967-411.168c-108.274-109.768-252.366-170.285-405.575-170.285s-297.132 60.516-405.573 170.284zm30.509 791.575c-100.151-101.53-155.365-236.682-155.365-380.236s55.214-278.711 155.365-380.242 233.461-157.5 375.064-157.5 274.915 55.976 375.066 157.5 155.365 236.685 155.365 380.242-55.216 278.706-155.365 380.236-233.3 157.507-375.066 157.507-274.915-55.972-375.066-157.503zm4.311-756.272c-98.99 100.352-153.541 233.822-153.541 375.866s54.551 275.514 153.541 375.868 230.642 155.658 370.752 155.658 271.766-55.3 370.754-155.658 153.542-233.826 153.542-375.868-54.553-275.515-153.542-375.866-230.644-155.661-370.754-155.661-271.765 55.311-370.754 155.664zm31.5 719.794c-90.7-91.949-140.607-213.988-140.607-343.928s49.909-252.148 140.607-343.93c90.7-91.947 211.078-142.548 339.249-142.548s248.717 50.6 339.25 142.548 140.609 213.989 140.609 343.93-49.908 252.147-140.609 343.928c-90.532 91.95-211.076 142.549-339.25 142.549s-248.718-50.593-339.247-142.546zm3.318-684.664c-89.7 90.942-139.117 211.973-139.117 340.567s49.412 249.628 139.117 340.567 209.086 141.037 335.931 141.037 246.229-50.1 335.934-141.037 139.117-211.972 139.117-340.567-49.412-249.625-139.117-340.567-208.922-141.037-335.934-141.037c-126.843.004-246.227 50.101-335.93 141.04zm32.5 648.356C1053.6 5765.439 1009 5656.177 1009 5540.02s44.6-225.421 125.685-307.62 188.857-127.418 303.433-127.418 222.354 45.217 303.435 127.418 125.685 191.461 125.685 307.62-44.6 225.42-125.685 307.62c-80.915 82.2-188.693 127.418-303.435 127.418-114.574 0-222.35-45.217-303.431-127.418zm2.156-612.887c-80.42 81.526-124.858 189.95-124.858 305.437s44.273 223.737 124.858 305.434c80.418 81.527 187.365 126.577 301.277 126.577s220.695-44.882 301.279-126.577c80.418-81.527 124.856-189.951 124.856-305.434s-44.271-223.742-124.856-305.437c-80.418-81.7-187.533-126.579-301.279-126.579s-220.695 44.887-301.277 126.583zm33.659 576.578c-71.465-72.452-110.928-168.772-110.928-271.312s39.3-198.86 110.928-271.311c71.464-72.45 166.474-112.458 267.618-112.458s196.154 39.839 267.62 112.458c71.465 72.45 110.927 168.77 110.927 271.311s-39.3 198.859-110.927 271.312c-71.466 72.449-166.476 112.458-267.62 112.458s-196.154-39.838-267.62-112.454zm1.16-541.446c-71.132 72.115-110.43 168.1-110.43 270.135s39.132 198.018 110.43 270.134 165.811 111.954 266.458 111.954 195.327-39.672 266.458-111.954 110.431-168.1 110.431-270.134-39.132-198.02-110.431-270.135-165.811-111.954-266.458-111.954-195.32 39.673-266.459 111.958z" transform="translate(-1532.51 -5882.35)"/></g><g class="cls-7" transform="translate(-1)"><path id="联合_46-2" data-name="联合 46" class="cls-5" d="M781.153 6582.651C628 6517.008 490.517 6423.039 372.4 6303.3a1299.729 1299.729 0 0 1-275.554-414.395C29.73 5728.246-4.271 5557.393-4.271 5381.447s34-346.8 101.117-507.458A1299.728 1299.728 0 0 1 372.4 4459.6c118.116-119.747 255.6-213.714 408.751-279.356 158.623-68.042 327-102.513 500.554-102.513s342.08 34.471 500.554 102.513c153.151 65.642 290.634 159.609 408.751 279.356a1299.766 1299.766 0 0 1 275.557 414.389c67.114 160.81 101.115 331.514 101.115 507.458s-34 346.8-101.115 507.458A1299.767 1299.767 0 0 1 2191.01 6303.3c-118.117 119.743-255.6 213.712-408.751 279.355-158.474 68.041-327 102.513-500.554 102.513s-342.08-34.476-500.552-102.517zm11.53-2374.833c-149.6 64.143-283.982 156.013-399.437 272.912a1270.321 1270.321 0 0 0-269.2 404.947c-65.489 157.063-98.752 323.869-98.752 495.77s33.263 338.707 98.752 495.77a1272.794 1272.794 0 0 0 269.2 404.948c115.455 117.046 249.833 208.769 399.437 272.911 154.925 66.394 319.46 100.114 489.022 100.114s334.1-33.72 489.024-100.114c149.6-64.143 283.982-156.014 399.437-272.911a1270.377 1270.377 0 0 0 269.2-404.948c65.489-157.063 98.751-323.871 98.751-495.77s-33.262-338.707-98.751-495.77a1270.367 1270.367 0 0 0-269.2-404.947c-115.455-117.048-249.833-208.77-399.437-272.912-154.779-66.392-319.314-100.118-489.029-100.118-169.556 0-334.092 33.726-489.017 100.118zm6.061 2332.721c-147.83-63.4-280.435-154.068-394.411-269.614a1254.582 1254.582 0 0 1-265.946-399.855c-64.751-155.114-97.569-319.823-97.569-489.624s32.818-334.508 97.569-489.625a1254.582 1254.582 0 0 1 265.947-399.851c113.976-115.55 246.58-206.222 394.411-269.616 153.005-65.643 315.47-98.916 482.961-98.916s329.958 33.273 482.963 98.916c147.83 63.394 280.433 154.066 394.411 269.616a1254.6 1254.6 0 0 1 265.946 399.851c64.749 155.117 97.567 319.823 97.567 489.625s-32.819 334.51-97.567 489.624a1254.634 1254.634 0 0 1-265.946 399.855c-113.978 115.546-246.581 206.219-394.411 269.614-153.005 65.644-315.472 98.914-482.963 98.914s-329.957-33.27-482.962-98.914zm10.939-2291.81C665.4 4310.63 535.605 4399.352 424.289 4512.2A1227.321 1227.321 0 0 0 164.4 4902.913c-63.272 151.668-95.351 312.629-95.351 478.534s32.079 327.017 95.351 478.535a1225.684 1225.684 0 0 0 259.889 390.708c111.316 112.853 241.113 201.577 385.394 263.47 149.457 64.147 308.227 96.667 472.022 96.667s322.567-32.52 472.023-96.667c144.431-61.894 274.077-150.618 385.394-263.47a1227.289 1227.289 0 0 0 259.886-390.709c63.272-151.518 95.351-312.479 95.351-478.535s-32.078-327.015-95.351-478.534a1225.66 1225.66 0 0 0-259.886-390.71c-111.316-112.851-241.111-201.573-385.394-263.473-149.456-64.14-308.227-96.662-472.023-96.662-163.647 0-322.565 32.523-472.022 96.662zm6.654 2249.546c-142.361-61-270.235-148.521-380.072-259.724a1206.65 1206.65 0 0 1-256.19-385.315c-62.384-149.42-94.02-308.134-94.02-471.791s31.636-322.37 94.02-471.79a1208.264 1208.264 0 0 1 256.19-385.314c109.837-111.354 237.712-198.727 380.072-259.724 147.386-63.245 303.938-95.317 465.368-95.317s317.983 32.072 465.371 95.317c142.361 61 270.234 148.52 380.071 259.724a1206.581 1206.581 0 0 1 256.19 385.314c62.385 149.42 94.02 308.132 94.02 471.79s-31.636 322.37-94.02 471.791a1210.7 1210.7 0 0 1-256.19 385.315c-109.689 111.353-237.71 198.725-380.071 259.724-147.387 63.245-303.94 95.316-465.371 95.316s-317.983-32.07-465.369-95.315zm10.5-2208.628c-139.108 59.646-264.173 145.074-371.5 253.878A1183.212 1183.212 0 0 0 204.761 4920.3c-60.905 146.123-91.8 301.239-91.8 461.15s30.9 315.176 91.8 461.149a1182.111 1182.111 0 0 0 250.424 376.622c107.326 108.806 232.39 194.231 371.5 253.879 144.134 61.748 297.138 93.069 454.874 93.069s310.886-31.321 454.873-93.069c139.108-59.648 264.173-145.073 371.5-253.879a1182.107 1182.107 0 0 0 250.423-376.621c60.9-146.121 91.8-301.239 91.8-461.149s-30.9-315.175-91.8-461.15a1182.14 1182.14 0 0 0-250.424-376.622c-107.326-108.805-232.391-194.23-371.5-253.879-143.838-61.9-296.843-93.22-454.727-93.22-157.734-.004-310.885 31.32-454.872 93.067zm7.095 2166.514C696.894 6397.412 573.9 6313.336 468.2 6206.179A1163.078 1163.078 0 0 1 221.614 5835.4c-60.019-143.875-90.473-296.592-90.473-453.955s30.453-310.229 90.473-453.956a1163.091 1163.091 0 0 1 246.58-370.776c105.7-107.158 228.695-191.235 365.732-249.983 141.918-60.846 292.556-91.72 447.778-91.72s306.01 30.874 447.778 91.72c137.04 58.749 260.035 142.826 365.733 249.983a1163.1 1163.1 0 0 1 246.585 370.778c60.021 143.875 90.472 296.592 90.472 453.956s-30.451 310.229-90.472 453.955a1163.092 1163.092 0 0 1-246.581 370.778c-105.7 107.157-228.693 191.233-365.733 249.982-141.768 60.846-292.408 91.722-447.778 91.722s-306.008-30.876-447.781-91.722zm9.9-2125.6C709.9 4387.961 589.564 4470.24 486.23 4575a1139.792 1139.792 0 0 0-241.111 362.534c-58.688 140.578-88.4 290-88.4 443.914s29.714 303.337 88.4 443.913A1137.366 1137.366 0 0 0 486.23 6187.9c103.333 104.758 223.668 187.036 357.6 244.435 138.665 59.5 286.052 89.624 437.873 89.624s299.208-30.125 437.873-89.624c133.935-57.4 254.269-139.677 357.6-244.435a1137.339 1137.339 0 0 0 241.111-362.537c58.69-140.576 88.4-290 88.4-443.913s-29.714-303.336-88.4-443.914A1137.332 1137.332 0 0 0 2077.18 4575c-103.333-104.759-223.667-187.038-357.6-244.437a1106.941 1106.941 0 0 0-437.873-89.623c-151.823-.002-299.207 30.123-437.875 89.621zM851.52 6413.9c-131.57-56.5-249.833-137.282-351.393-240.092A1114.479 1114.479 0 0 1 263.3 5817.717c-57.654-138.177-86.925-284.9-86.925-436.118s29.271-298.094 86.925-436.123a1121.7 1121.7 0 0 1 236.824-356.241c101.56-102.962 219.676-183.74 351.393-240.09 136.3-58.45 281.024-88.124 430.185-88.124s294.035 29.674 430.188 88.124c131.569 56.5 249.833 137.279 351.393 240.09a1115.134 1115.134 0 0 1 236.824 356.241c57.654 138.179 86.925 284.9 86.925 436.123s-29.271 298.09-86.925 436.118a1121.7 1121.7 0 0 1-236.824 356.241c-101.56 102.96-219.676 183.738-351.393 240.09-136.152 58.3-281.026 87.973-430.187 87.973s-294.031-29.673-430.183-88.121zm9.313-2042.275c-128.76 55.153-244.364 134.282-343.707 234.846a1094.133 1094.133 0 0 0-231.5 348.448c-56.323 135.184-85 278.606-85 426.68s28.532 291.493 85 426.676a1094.585 1094.585 0 0 0 231.649 348.447c99.341 100.713 214.946 179.692 343.7 234.846a1062.8 1062.8 0 0 0 420.874 86.173c146.057 0 287.529-28.924 420.874-86.173 128.76-55.154 244.364-134.285 343.705-234.846a1092.16 1092.16 0 0 0 231.649-348.447c56.323-135.183 85-278.607 85-426.676s-28.532-291.5-85-426.68a1094.528 1094.528 0 0 0-231.649-348.448c-99.341-100.713-214.946-179.7-343.705-234.846-133.493-57.249-275.114-86.175-421.022-86.175s-287.526 28.926-420.868 86.175zm8.277 2000.161c-126.247-54.1-239.632-131.585-337.053-230.349a1071.646 1071.646 0 0 1-227.214-341.7c-55.289-132.485-83.378-273.211-83.378-418.286s28.089-285.8 83.378-418.285a1071.626 1071.626 0 0 1 227.214-341.7c97.421-98.766 210.806-176.248 337.053-230.352a1049.263 1049.263 0 0 1 825.189 0c126.248 54.1 239.634 131.586 337.053 230.352a1071.625 1071.625 0 0 1 227.216 341.7c55.289 132.486 83.375 273.209 83.375 418.285s-28.086 285.8-83.375 418.286a1071.645 1071.645 0 0 1-227.216 341.7c-97.419 98.764-210.806 176.245-337.053 230.349a1049.246 1049.246 0 0 1-825.189 0zm8.87-1959.4c-123.586 52.9-234.459 128.739-329.661 225.4A1053.269 1053.269 0 0 0 325.982 4972c-54.105 129.638-81.454 267.369-81.454 409.294s27.5 279.658 81.454 409.295A1045.029 1045.029 0 0 0 548.319 6124.8c95.351 96.516 206.224 172.351 329.661 225.4 127.873 54.854 263.73 82.579 403.724 82.579a1020.824 1020.824 0 0 0 403.726-82.579c123.586-52.9 234.458-128.734 329.662-225.4a1051.552 1051.552 0 0 0 222.335-334.208c54.107-129.637 81.456-267.369 81.456-409.295s-27.5-279.657-81.456-409.294a1048.983 1048.983 0 0 0-552-559.612 1028.185 1028.185 0 0 0-807.45 0zm8.574 1917.131c-120.924-51.854-229.432-126.039-322.565-220.458a1025.451 1025.451 0 0 1-217.459-327.013c-52.923-126.94-79.829-261.674-79.829-400.6s26.906-273.662 79.829-400.6a1026.244 1026.244 0 0 1 217.46-327.018c93.28-94.567 201.787-168.753 322.565-220.456a1005.146 1005.146 0 0 1 790.3 0c120.926 51.854 229.433 126.04 322.567 220.456a1024.645 1024.645 0 0 1 217.458 327.017c52.924 126.94 79.829 261.671 79.829 400.6s-26.9 273.662-79.829 400.6a1026.227 1026.227 0 0 1-217.458 327.013c-93.134 94.419-201.789 168.754-322.567 220.458-125.211 53.8-258.11 80.929-395.15 80.929a997.47 997.47 0 0 1-395.15-80.924zm8.426-1876.065c-118.263 50.652-224.554 123.341-315.764 215.811a1003.859 1003.859 0 0 0-212.876 320.125c-51.74 124.092-78.055 256.127-78.055 392.059s26.315 267.817 78.055 392.06a1003.88 1003.88 0 0 0 212.876 320.121c91.21 92.471 197.5 165.156 315.764 215.812a984.562 984.562 0 0 0 773.449 0c118.265-50.655 224.555-123.34 315.767-215.812a1003.9 1003.9 0 0 0 212.874-320.121c51.742-124.094 78.055-256.13 78.055-392.06s-26.313-267.816-78.055-392.059a1003.873 1003.873 0 0 0-212.87-320.121c-91.212-92.47-197.5-165.159-315.767-215.811a984.534 984.534 0 0 0-773.449 0zm9.167 1833.952A963.063 963.063 0 0 1 595.92 6076.69a984.5 984.5 0 0 1-207.849-312.478c-50.557-121.246-76.281-249.985-76.281-382.769s25.575-261.522 76.281-382.768a977.881 977.881 0 0 1 207.85-312.475c89.142-90.223 192.77-161.111 308.227-210.717a952.924 952.924 0 0 1 377.557-77.333c130.979 0 257.964 25.928 377.559 77.333a963.136 963.136 0 0 1 308.227 210.717 984.453 984.453 0 0 1 207.849 312.477c50.558 121.246 76.279 249.984 76.279 382.768s-25.573 261.523-76.279 382.769a977.957 977.957 0 0 1-207.849 312.478c-89.142 90.22-192.772 161.108-308.227 210.714a952.941 952.941 0 0 1-377.559 77.335c-130.977.002-257.964-25.928-377.558-77.333zm7.983-1793.04a946.98 946.98 0 0 0-301.87 206.373 961.491 961.491 0 0 0-203.56 306.037c-49.523 118.693-74.654 244.734-74.654 374.672s25.131 255.977 74.654 374.673a961.516 961.516 0 0 0 203.562 306.033 947.046 947.046 0 0 0 301.87 206.372 940.175 940.175 0 0 0 739.151 0 947.05 947.05 0 0 0 301.87-206.372 961.558 961.558 0 0 0 203.563-306.033c49.523-118.7 74.654-244.736 74.654-374.673s-25.131-255.979-74.654-374.672a961.533 961.533 0 0 0-203.563-306.033 946.984 946.984 0 0 0-301.87-206.373c-116.934-50.206-241.407-75.684-369.577-75.684a932.382 932.382 0 0 0-369.576 75.684zm9.608 1750.779a920.686 920.686 0 0 1-293.886-200.823 934.775 934.775 0 0 1-198.092-297.941c-48.194-115.547-72.733-238.292-72.733-364.932s24.393-249.383 72.733-364.931a934.741 934.741 0 0 1 198.091-297.941 920.639 920.639 0 0 1 293.887-200.825 908.381 908.381 0 0 1 359.967-73.737c124.917 0 245.991 24.73 359.967 73.737a920.647 920.647 0 0 1 293.887 200.825 934.756 934.756 0 0 1 198.093 297.941c48.193 115.548 72.732 238.291 72.732 364.931s-24.391 249.385-72.732 364.932a934.79 934.79 0 0 1-198.093 297.941 920.694 920.694 0 0 1-293.887 200.827c-113.976 49.007-235.05 73.735-359.967 73.735-124.768 0-245.989-24.728-359.967-73.735zm7.392-1709.863a902.5 902.5 0 0 0-287.973 196.778 917.99 917.99 0 0 0-194.1 291.945c-47.158 113.154-71.106 233.5-71.106 357.439s23.948 244.289 71.106 357.44a916.322 916.322 0 0 0 194.1 291.945c83.228 84.377 180.057 150.618 287.973 196.779a898.262 898.262 0 0 0 705.151 0 902.513 902.513 0 0 0 287.975-196.779 913.928 913.928 0 0 0 194.1-291.945c47.159-113.152 71.106-233.5 71.106-357.44s-23.948-244.285-71.106-357.439a916.379 916.379 0 0 0-194.1-291.945c-83.229-84.376-180.058-150.618-287.975-196.778a898.256 898.256 0 0 0-705.151 0zm10.2 1667.6a877.811 877.811 0 0 1-279.546-191.08 895.439 895.439 0 0 1-257.669-630.5c0-120.345 23.21-237.095 69.184-347.1a891.277 891.277 0 0 1 188.485-283.4 877.754 877.754 0 0 1 279.547-191.083 864.376 864.376 0 0 1 342.374-70.137c118.708 0 233.868 23.526 342.376 70.137a877.777 877.777 0 0 1 279.547 191.083 895.436 895.436 0 0 1 257.672 630.5c0 120.345-23.208 237.1-69.185 347.1a891.325 891.325 0 0 1-188.487 283.4 877.853 877.853 0 0 1-279.547 191.082c-108.508 46.612-223.668 70.141-342.376 70.141s-233.868-23.53-342.374-70.142zm6.8-1626.684a857.78 857.78 0 0 0-273.93 187.338 871.121 871.121 0 0 0-184.641 277.859c-44.94 107.757-67.705 222.107-67.705 340.206s22.766 232.445 67.705 340.2a870.929 870.929 0 0 0 184.787 277.71 857.789 857.789 0 0 0 273.929 187.336 854.622 854.622 0 0 0 671.15 0 857.784 857.784 0 0 0 273.932-187.336 873.4 873.4 0 0 0 184.787-277.71c44.94-107.756 67.707-222.1 67.707-340.2s-22.767-232.449-67.707-340.206a870.881 870.881 0 0 0-184.787-277.707c-79.238-80.183-171.336-143.277-273.932-187.337a854.131 854.131 0 0 0-671.3-.151zm10.79 1584.571a830.561 830.561 0 0 1-265.207-181.192 849.931 849.931 0 0 1-244.364-598.13c0-114.2 22.026-224.955 65.637-329.263a844.946 844.946 0 0 1 178.727-268.866c76.724-77.63 165.866-138.63 265.207-181.192a820.378 820.378 0 0 1 324.783-66.543c112.647 0 221.895 22.33 324.783 66.543a830.572 830.572 0 0 1 265.214 181.194 849.939 849.939 0 0 1 244.363 598.129c0 114.2-22.026 224.954-65.637 329.265a843.28 843.28 0 0 1-178.726 268.865 830.549 830.549 0 0 1-265.208 181.192c-102.889 44.213-212.136 66.543-324.783 66.543s-221.897-22.33-324.788-66.543zm6.357-1543.5a815.677 815.677 0 0 0-260.034 177.742 828.182 828.182 0 0 0-175.326 263.623c-42.723 102.211-64.306 210.864-64.306 322.818s21.583 220.608 64.306 322.82a828.152 828.152 0 0 0 175.326 263.621 815.639 815.639 0 0 0 260.034 177.746c100.82 43.313 208 65.191 318.426 65.191s217.606-21.878 318.426-65.191a815.656 815.656 0 0 0 260.035-177.746 828.175 828.175 0 0 0 175.328-263.621c42.722-102.212 64.306-210.868 64.306-322.82s-21.583-220.607-64.306-322.818a828.2 828.2 0 0 0-175.328-263.623 815.693 815.693 0 0 0-260.035-177.742c-100.82-43.314-208-65.195-318.426-65.195s-217.603 21.878-318.424 65.192zm11.235 1501.243a786.154 786.154 0 0 1-250.869-171.451A803.729 803.729 0 0 1 492.439 5381.3c0-108.054 20.845-212.814 62.089-311.429a798.217 798.217 0 0 1 169.117-254.33 786.152 786.152 0 0 1 250.869-171.451 781.071 781.071 0 0 1 614.383 0 786.151 786.151 0 0 1 250.868 171.451 803.715 803.715 0 0 1 231.206 565.759c0 108.057-20.844 212.815-62.088 311.43a798.192 798.192 0 0 1-169.119 254.329 786.152 786.152 0 0 1-250.864 171.447 781.088 781.088 0 0 1-614.383 0zm5.764-1460.331a769.167 769.167 0 0 0-246.137 168.3A788.1 788.1 0 0 0 507.222 5381.6c0 105.956 20.4 208.767 60.907 305.582a780.916 780.916 0 0 0 166.012 249.532 771.565 771.565 0 0 0 246.137 168.3 761.143 761.143 0 0 0 301.427 61.748c104.516 0 205.928-20.681 301.427-61.748a769.085 769.085 0 0 0 246.138-168.3 788.063 788.063 0 0 0 226.918-555.114c0-105.959-20.4-208.77-60.9-305.586a780.924 780.924 0 0 0-166.014-249.535 771.552 771.552 0 0 0-246.138-168.3 761.2 761.2 0 0 0-301.436-61.749c-104.511 0-205.922 20.681-301.422 61.745zm11.827 1418.219a738.527 738.527 0 0 1-236.527-161.71 760.329 760.329 0 0 1 .148-1066.625c68.445-69.238 147.83-123.64 236.527-161.708a736.735 736.735 0 0 1 815.728 161.708 760.327 760.327 0 0 1 0 1066.773c-68.445 69.24-147.831 123.643-236.528 161.71a737.478 737.478 0 0 1-579.348-.148zm5.323-1377.3a728.6 728.6 0 0 0-232.24 158.702 738.2 738.2 0 0 0-156.553 235.445c-38.14 91.272-57.358 188.235-57.358 288.2a743.3 743.3 0 0 0 213.91 523.646A727 727 0 0 0 997.428 6063.8c90.028 38.665 185.675 58.149 284.277 58.149a718.729 718.729 0 0 0 284.279-58.149 728.6 728.6 0 0 0 232.241-158.711 738.124 738.124 0 0 0 156.553-235.446c38.14-91.271 57.357-188.236 57.357-288.2a743.294 743.294 0 0 0-213.91-523.646 726.961 726.961 0 0 0-232.241-158.71 723.962 723.962 0 0 0-568.556 0zm12.27 1335.188c-83.228-35.667-157.883-86.774-222.189-151.818a706.673 706.673 0 0 1-149.752-225.254c-36.514-87.375-54.844-180.144-54.844-275.76a711.038 711.038 0 0 1 204.6-501.014 695.994 695.994 0 0 1 222.189-151.825c86.186-37.018 177.692-55.6 272.007-55.6a687.676 687.676 0 0 1 272.008 55.6c83.229 35.668 157.883 86.773 222.189 151.817a706.667 706.667 0 0 1 149.752 225.254c36.514 87.374 54.847 180.141 54.847 275.76a711.052 711.052 0 0 1-204.6 501.014 695.949 695.949 0 0 1-222.189 151.818 693.175 693.175 0 0 1-544.015 0zm4.73-1294.273a684.215 684.215 0 0 0-218.2 149.121 701.794 701.794 0 0 0 0 984.341 683.448 683.448 0 0 0 218.2 149.123 680.322 680.322 0 0 0 534.555 0 684.228 684.228 0 0 0 218.2-149.123 701.786 701.786 0 0 0 0-984.341 683.413 683.413 0 0 0-218.2-149.121 680.288 680.288 0 0 0-534.555 0zm12.863 1252.16a650.981 650.981 0 0 1-207.7-142.075 662.584 662.584 0 0 1-140.143-210.567c-34.149-81.68-51.3-168.454-51.3-257.924a667.69 667.69 0 0 1 51.3-257.929A660.93 660.93 0 0 1 819.587 4913.1a652.547 652.547 0 0 1 207.7-142.075c80.566-34.622 166.161-52.007 254.414-52.007a643.139 643.139 0 0 1 254.417 52.007 650.926 650.926 0 0 1 207.7 142.075 662.588 662.588 0 0 1 140.144 210.565c34.148 81.682 51.3 168.455 51.3 257.929a667.669 667.669 0 0 1-51.3 257.924 660.947 660.947 0 0 1-140.144 210.567 652.613 652.613 0 0 1-207.7 142.075 648.327 648.327 0 0 1-508.831 0zm4.139-1211.1a640.129 640.129 0 0 0-204.3 139.682 656.973 656.973 0 0 0 0 921.7 640.091 640.091 0 0 0 204.3 139.677 636.66 636.66 0 0 0 500.554 0 640.063 640.063 0 0 0 204.3-139.677 656.967 656.967 0 0 0 0-921.7 640.1 640.1 0 0 0-204.3-139.682 636.693 636.693 0 0 0-500.554 0zm13.453 1168.827a605.284 605.284 0 0 1-193.361-132.183 614.594 614.594 0 0 1-130.387-196.028c-31.783-75.986-47.748-156.916-47.748-240.09a622 622 0 0 1 47.748-240.093 614.576 614.576 0 0 1 130.387-196.03 605.269 605.269 0 0 1 193.361-132.186 603.513 603.513 0 0 1 473.648 0 605.3 605.3 0 0 1 193.363 132.186 614.569 614.569 0 0 1 130.386 196.03c31.784 75.982 47.749 156.912 47.749 240.093a621.992 621.992 0 0 1-47.749 240.09 614.587 614.587 0 0 1-130.386 196.028 605.317 605.317 0 0 1-193.363 132.183 603.53 603.53 0 0 1-473.648 0zm3.7-1128.068a597.211 597.211 0 0 0-190.405 130.083 612.477 612.477 0 0 0 0 858.906 595.617 595.617 0 0 0 190.405 130.087 594.033 594.033 0 0 0 466.256 0 597.26 597.26 0 0 0 190.407-130.087 604.73 604.73 0 0 0 128.316-193.033 612.34 612.34 0 0 0-128.316-665.719 595.64 595.64 0 0 0-190.407-130.089 593.153 593.153 0 0 0-466.256-.147zm13.9 1085.954a560.837 560.837 0 0 1-179.031-122.442A572.4 572.4 0 0 1 718.473 5381.6a576.323 576.323 0 0 1 44.2-222.259 569.441 569.441 0 0 1 120.777-181.492 560.84 560.84 0 0 1 179.023-122.443 558.688 558.688 0 0 1 438.464 0 560.854 560.854 0 0 1 179.021 122.443 572.405 572.405 0 0 1 164.98 403.75 576.289 576.289 0 0 1-44.2 222.254 569.385 569.385 0 0 1-120.778 181.491 560.851 560.851 0 0 1-179.021 122.445 558.694 558.694 0 0 1-438.464 0zm3.1-1044.89a553.049 553.049 0 0 0-176.51 120.643 559.916 559.916 0 0 0-119 178.945 567.515 567.515 0 0 0 119 617.163 551.493 551.493 0 0 0 176.51 120.647 550.376 550.376 0 0 0 432.255 0 553.1 553.1 0 0 0 176.509-120.647 559.935 559.935 0 0 0 119-178.945 567.515 567.515 0 0 0-119-617.163 551.428 551.428 0 0 0-176.511-120.639 550.354 550.354 0 0 0-432.255 0zm14.486 1002.626a517.552 517.552 0 0 1-164.683-112.552 526.9 526.9 0 0 1-151.675-371.37 526.91 526.91 0 0 1 151.672-371.38 515.18 515.18 0 0 1 164.683-112.552 513.845 513.845 0 0 1 403.281 0 517.569 517.569 0 0 1 164.684 112.552A526.922 526.922 0 0 1 1799.7 5381.6a526.908 526.908 0 0 1-151.675 371.375 513.455 513.455 0 0 1-567.964 112.552zm-159.954-850.655c-96.533 98.014-149.752 228.1-149.752 366.58s53.219 268.567 149.752 366.579c96.533 97.868 225 151.819 361.592 151.819s264.913-53.952 361.594-151.819c96.534-97.864 149.753-228.1 149.753-366.579s-53.219-268.566-149.753-366.58c-96.533-97.865-225-151.819-361.594-151.819S1016.794 4917 920.113 5014.867zm27.2 705.736c-89.29-90.521-138.517-211.017-138.517-339s49.227-248.488 138.517-339.009 208.144-140.425 334.391-140.425 245.1 49.906 334.393 140.425 138.517 211.019 138.517 339.009-49.229 248.482-138.517 339-208 140.426-334.393 140.426-245.104-49.906-334.39-140.429zm3.844-674.262c-88.256 89.47-136.891 208.466-136.891 335.106s48.635 245.636 136.891 335.109 205.631 138.778 330.547 138.778 242.3-49.306 330.549-138.778 136.891-208.469 136.891-335.109-48.637-245.637-136.891-335.106-205.631-138.781-330.553-138.781-242.288 49.306-330.543 138.78zm28.087 641.738c-80.863-81.978-125.36-190.782-125.36-306.632s44.5-224.805 125.36-306.633c80.864-81.976 188.188-127.09 302.46-127.09s221.746 45.114 302.461 127.09 125.361 190.784 125.361 306.633-44.5 224.8-125.361 306.632c-80.715 81.979-188.187 127.091-302.461 127.091s-221.743-45.112-302.46-127.091zm2.958-610.417c-79.977 81.08-124.031 188.986-124.031 303.635s44.054 222.559 124.031 303.636 186.413 125.743 299.5 125.743 219.528-44.663 299.5-125.743 124.038-188.986 124.038-303.633-44.054-222.555-124.031-303.635-186.266-125.743-299.5-125.743c-113.094-.004-219.532 44.661-299.509 125.739zm28.974 578.047c-72.291-73.286-112.056-170.7-112.056-274.262s39.767-200.976 112.056-274.261 168.377-113.6 270.528-113.6 198.241 40.315 270.53 113.6 112.056 170.7 112.056 274.261-39.767 200.976-112.056 274.262c-72.141 73.288-168.231 113.6-270.53 113.6-102.15 0-198.238-40.309-270.527-113.601zm1.922-546.424c-71.7 72.685-111.318 169.351-111.318 272.315s39.472 199.474 111.318 272.311c71.7 72.688 167.047 112.852 268.606 112.852s196.762-40.015 268.608-112.852c71.7-72.686 111.316-169.352 111.316-272.311s-39.471-199.48-111.316-272.315c-71.7-72.836-167.2-112.853-268.608-112.853s-196.761 40.016-268.604 112.852zm30.009 514.053c-63.715-64.6-98.9-150.47-98.9-241.891s35.035-177.295 98.9-241.889c63.715-64.594 148.422-100.263 238.6-100.263s174.883 35.519 238.6 100.263c63.715 64.594 98.9 150.467 98.9 241.889s-35.036 177.3-98.9 241.891c-63.717 64.593-148.423 100.262-238.6 100.262s-174.885-35.521-238.6-100.263zm1.034-482.731c-63.418 64.295-98.455 149.867-98.455 240.84s34.889 176.545 98.455 240.84 147.83 99.814 237.563 99.814 174.146-35.37 237.563-99.814 98.456-149.87 98.456-240.84-34.888-176.545-98.456-240.84-147.83-99.814-237.563-99.814-174.142 35.37-237.562 99.813z" transform="translate(1052.27 -4451.45)"/></g></g><path id="background-1-2" class="cls-6" d="M0 0h1920v340H0z" transform="translate(-1)"/></g></svg>