<svg xmlns="http://www.w3.org/2000/svg" viewBox="0 0 140 21"><defs><style>.cls-1,.cls-2{fill:#fff}.cls-2{opacity:.8}</style></defs><g id="blockmeta-logo" transform="translate(-372 -24)"><path id="Logo" class="cls-1" d="M18.468-13.651a4.838 4.838 0 0 0-2.877-4.68 4.814 4.814 0 0 0 2.583-4.3c0-3.568-2.378-5.85-6.458-5.85H3.32v20.826h8.748c3.732 0 6.4-2.106 6.4-5.996zm-4.374-8.8c0 1.433-.969 2.4-2.7 2.4H7.4v-4.8h3.992c1.733-.002 2.702.963 2.702 2.396zm.294 8.6a2.471 2.471 0 0 1-2.73 2.574H7.4V-16.4h4.257a2.45 2.45 0 0 1 2.73 2.544zm15.03 6.2v-3.217H27.95c-.969 0-1.35-.468-1.35-1.375V-28.48h-3.817v16.467a4.148 4.148 0 0 0 4.462 4.358zm15.353-7.634c0-2.749-.352-4.475-1.732-5.908a6.352 6.352 0 0 0-4.756-1.872 6.279 6.279 0 0 0-4.726 1.865c-1.38 1.433-1.732 3.159-1.732 5.908 0 2.779.352 4.5 1.732 5.937a6.279 6.279 0 0 0 4.726 1.875 6.352 6.352 0 0 0 4.756-1.872c1.38-1.433 1.732-3.159 1.732-5.937zm-3.816 0c0 1.579-.088 2.925-.881 3.714a2.418 2.418 0 0 1-1.791.673 2.348 2.348 0 0 1-1.761-.673c-.793-.79-.881-2.135-.881-3.714s.088-2.9.881-3.685a2.348 2.348 0 0 1 1.761-.673 2.418 2.418 0 0 1 1.791.673c.793.785.881 2.101.881 3.681zm19.17 5.733L57.541-12.1a3.092 3.092 0 0 1-2.466 1.2 2.651 2.651 0 0 1-2.175-1 5.242 5.242 0 0 1-.851-3.393 5.15 5.15 0 0 1 .851-3.364 2.651 2.651 0 0 1 2.172-.994 3.092 3.092 0 0 1 2.466 1.2l2.583-2.574a6.526 6.526 0 0 0-5.049-2.047c-3.053 0-6.84 1.609-6.84 7.78s3.787 7.809 6.84 7.809a6.549 6.549 0 0 0 5.052-2.074zm17.467 1.9l-5.871-9.1 5.46-6.142h-4.61l-5.079 6.23V-28.48h-3.816v20.825h3.816v-4.533L69.107-14l3.758 6.347z" transform="translate(368.68 52.48)"/><path id="Logo-2" data-name="Logo" class="cls-2" d="M101.634-7.655v-9.008a5.285 5.285 0 0 0-1.468-3.919 5.271 5.271 0 0 0-3.728-1.345 5.448 5.448 0 0 0-4.814 2.574 4.807 4.807 0 0 0-4.55-2.574 5.37 5.37 0 0 0-4.2 1.843v-1.667h-1.5v14.1h1.5V-16.4c0-2.662 1.468-4.212 3.992-4.212s3.9 1.492 3.9 4.212v8.745h1.5v-9.008a3.715 3.715 0 0 1 3.992-3.948c2.525 0 3.9 1.492 3.9 4.212v8.745zm16.616-6.727v-.673c0-4.3-2.143-6.873-5.666-6.873-3.552 0-5.666 2.691-5.666 7.224 0 4.709 2.114 7.224 6.018 7.224a6.432 6.432 0 0 0 5.108-2.164l-1.116-.877a4.935 4.935 0 0 1-3.9 1.7c-2.994 0-4.609-1.989-4.609-5.557zm-1.5-1.2h-8.337a6.512 6.512 0 0 1 .5-2.662 3.925 3.925 0 0 1 3.67-2.369 3.925 3.925 0 0 1 3.67 2.369 6.512 6.512 0 0 1 .5 2.662zm11.98 7.927v-1.317h-1.03c-1.5 0-2.172-.877-2.172-2.34v-9.33h3.2v-1.111h-3.2v-4.5h-1.5v4.5H122.1v1.111h1.938v9.3c0 2.135 1.174 3.685 3.405 3.685zm14.59 0v-9.652c0-2.954-1.761-4.621-5.49-4.621-2.29 0-3.787.5-4.991 2.164l1.086.936c.881-1.287 1.908-1.784 3.9-1.784 2.877 0 3.992 1.2 3.992 3.451v1.579h-4.58c-3.082 0-4.932 1.492-4.932 4.065a4.025 4.025 0 0 0 1.027 2.749c.91.936 2.084 1.287 4.169 1.287a5.282 5.282 0 0 0 4.315-1.579v1.4zm-1.5-4.914a3.6 3.6 0 0 1-.793 2.691 4.676 4.676 0 0 1-3.52 1.078c-2.554 0-3.7-.877-3.7-2.749s1.174-2.837 3.611-2.837h4.4z" transform="translate(368.68 52.48)"/></g></svg>