<svg id="fail" xmlns="http://www.w3.org/2000/svg" viewBox="0 0 16 16"><defs><style>.cls-1{fill:none}.cls-23{fill:#f24141}.cls-3{fill:#fff}</style></defs><path id="路径_9080" data-name="路径 9080" class="cls-1" d="M0 0h16v16H0z"/><g id="组_3728" data-name="组 3728" transform="translate(1 1)"><g id="组_2790" data-name="组 2790"><circle id="椭圆_49" data-name="椭圆 49" class="cls-23" cx="7" cy="7" r="7"/></g><path id="路径_9078" data-name="路径 9078" class="cls-3" d="M1.752-8c.034 1.172.275 6.247.275 6.247h.935s.226-5.1.275-6.247a.752.752 0 1 0-1.485 0zm.737 6.91a.761.761 0 0 0-.589.254.878.878 0 0 0-.253.663.878.878 0 0 0 .253.662.772.772 0 0 0 .594.27A.842.842 0 0 0 3.105.5a.994.994 0 0 0 .242-.675.962.962 0 0 0-.242-.663.825.825 0 0 0-.616-.256z" transform="translate(4.499 11)"/></g></svg>