<svg xmlns="http://www.w3.org/2000/svg" viewBox="0 0 20 20">
  <defs>
    <style>
      .cls-1dfdfadfa {
        fill: #ddd;
      }

      .cls-2klklkdlfa {
        fill: #fff;
      }
    </style>
  </defs>
  <g id="asset-unknown" transform="translate(-1110 -240)">
    <circle id="椭圆_67" data-name="椭圆 67" class="cls-1dfdfadfa" cx="10" cy="10" r="10" transform="translate(1110 240)"/>
    <path id="路径_9199" data-name="路径 9199" class="cls-2klklkdlfa" d="M3.944-10.192a3.345,3.345,0,0,1,2.372.816A2.79,2.79,0,0,1,7.179-7.2a2.894,2.894,0,0,1-.585,1.8A16.068,16.068,0,0,1,5.346-4.216a2.981,2.981,0,0,0-.724.847A2.16,2.16,0,0,0,4.33-2.244v.354H3.1v-.354a3.032,3.032,0,0,1,.277-1.34A6.461,6.461,0,0,1,4.93-5.371a7.606,7.606,0,0,0,.524-.555,1.941,1.941,0,0,0,.462-1.217,1.936,1.936,0,0,0-.524-1.432,2.009,2.009,0,0,0-1.509-.539,1.981,1.981,0,0,0-1.71.755,2.8,2.8,0,0,0-.508,1.771H.448a3.6,3.6,0,0,1,.909-2.588A3.32,3.32,0,0,1,3.944-10.192ZM3.713-.812a.917.917,0,0,1,.678.262A.879.879,0,0,1,4.653.1a.872.872,0,0,1-.277.662.969.969,0,0,1-1.325,0A.9.9,0,0,1,2.789.1.847.847,0,0,1,3.051-.55.9.9,0,0,1,3.713-.812Z" transform="translate(1116.288 254.29)"/>
  </g>
</svg>
